# xmcd
#
# Track frame offsets: 
#        150
#        25877
#        53763
#        88549
#        120238
#        188004
#        214821
#
# Disc length: 3339 seconds
#
# Revision: 0
# Processed by: cddbd v1.5.2PL0 Copyright (c) Steve Scherf et al.
# Submitted via: ExactAudioCopyFreeDBPlugin 1.0
#
DISCID=510d0907
DTITLE=ЮРИЙ НАУМОВ - Эскапист
DYEAR=2018
DGENRE=Acoustic
TTITLE0=Миниатюры
TTITLE1=Никак Не Похоже На Блюз
TTITLE2=Пепел На Ветру
TTITLE3=Всемирный Закон Торможения
TTITLE4=Дорога Назад
TTITLE5=Сегодняшним Днём
TTITLE6=Вера
EXTD=
EXTT0=
EXTT1=
EXTT2=
EXTT3=
EXTT4=
EXTT5=
EXTT6=
PLAYORDER=
